<?xml version="1.0" encoding="UTF-8" standalone="no"?>
<!-- Created with Inkscape (http://www.inkscape.org/) -->

<svg
   xmlns:dc="http://purl.org/dc/elements/1.1/"
   xmlns:cc="http://creativecommons.org/ns#"
   xmlns:rdf="http://www.w3.org/1999/02/22-rdf-syntax-ns#"
   xmlns:svg="http://www.w3.org/2000/svg"
   xmlns="http://www.w3.org/2000/svg"
   xmlns:sodipodi="http://sodipodi.sourceforge.net/DTD/sodipodi-0.dtd"
   xmlns:inkscape="http://www.inkscape.org/namespaces/inkscape"
   width="51.236412mm"
   height="48.945541mm"
   viewBox="0 0 51.236412 48.945541"
   version="1.1"
   id="svg7030"
   inkscape:version="0.92.0 r15299"
   sodipodi:docname="tempstar.svg">
  <defs
     id="defs7024" />
  <sodipodi:namedview
     id="base"
     pagecolor="#ffffff"
     bordercolor="#666666"
     borderopacity="1.0"
     inkscape:pageopacity="0.0"
     inkscape:pageshadow="2"
     inkscape:zoom="0.35"
     inkscape:cx="224.8355"
     inkscape:cy="64.770291"
     inkscape:document-units="mm"
     inkscape:current-layer="layer1"
     showgrid="false"
     inkscape:window-width="1366"
     inkscape:window-height="705"
     inkscape:window-x="-8"
     inkscape:window-y="-8"
     inkscape:window-maximized="1"
     fit-margin-top="0"
     fit-margin-left="0"
     fit-margin-right="0"
     fit-margin-bottom="0" />
  <metadata
     id="metadata7027">
    <rdf:RDF>
      <cc:Work
         rdf:about="">
        <dc:format>image/svg+xml</dc:format>
        <dc:type
           rdf:resource="http://purl.org/dc/dcmitype/StillImage" />
        <dc:title></dc:title>
      </cc:Work>
    </rdf:RDF>
  </metadata>
  <g
     inkscape:label="Layer 1"
     inkscape:groupmode="layer"
     id="layer1"
     transform="translate(-46.953231,-125.87244)">
    <path
       style="color:#000000;font-style:normal;font-variant:normal;font-weight:normal;font-stretch:normal;font-size:medium;line-height:normal;font-family:sans-serif;font-variant-ligatures:normal;font-variant-position:normal;font-variant-caps:normal;font-variant-numeric:normal;font-variant-alternates:normal;font-feature-settings:normal;text-indent:0;text-align:start;text-decoration:none;text-decoration-line:none;text-decoration-style:solid;text-decoration-color:#000000;letter-spacing:normal;word-spacing:normal;text-transform:none;writing-mode:lr-tb;direction:ltr;text-orientation:mixed;dominant-baseline:auto;baseline-shift:baseline;text-anchor:start;white-space:normal;shape-padding:0;clip-rule:nonzero;display:inline;overflow:visible;visibility:visible;opacity:1;isolation:auto;mix-blend-mode:normal;color-interpolation:sRGB;color-interpolation-filters:linearRGB;solid-color:#000000;solid-opacity:1;vector-effect:none;fill:#000000;fill-opacity:1;fill-rule:nonzero;stroke:none;stroke-width:2.9910779;stroke-linecap:butt;stroke-linejoin:miter;stroke-miterlimit:4;stroke-dasharray:none;stroke-dashoffset:0;stroke-opacity:1;color-rendering:auto;image-rendering:auto;shape-rendering:auto;text-rendering:auto;enable-background:accumulate"
       d="m 72.571165,125.87244 c -7.04e-4,0 -0.777432,0.2148 -0.778308,0.21537 -8.99e-4,5.4e-4 -0.297035,0.23089 -0.29808,0.23175 -0.0021,0.002 -0.15826,0.19387 -0.193314,0.24842 -0.07009,0.10886 -0.09327,0.16223 -0.115868,0.2097 -0.04522,0.0952 -0.07348,0.16191 -0.104853,0.24279 -0.06303,0.16158 -0.129447,0.35466 -0.215358,0.60166 -0.17155,0.49405 -0.399683,1.18224 -0.667919,2.00373 -0.536444,1.64305 -1.23141,3.82639 -1.926461,6.01125 -0.695053,2.18483 -1.393128,4.36767 -1.920952,6.01122 -0.23514,0.73247 -0.415001,1.30746 -0.568548,1.77189 -0.489643,0.003 -1.093972,0.003 -1.865755,0 -1.726225,-0.005 -4.022101,-0.0198 -6.314812,-0.0331 -2.292711,-0.0146 -4.580899,-0.03 -6.309301,-0.0282 -0.8642,10e-4 -1.5913,0.005 -2.114149,0.017 -0.261425,0.005 -0.467117,0.0114 -0.640308,0.0225 -0.08649,0.005 -0.160531,0.008 -0.264815,0.0226 -0.05229,0.005 -0.106832,0.0113 -0.231751,0.0441 -0.06246,0.0169 -0.289914,0.11438 -0.292569,0.11584 -0.0013,6.8e-4 -0.319392,0.20915 -0.320154,0.2097 -7.63e-4,6.8e-4 -0.44137,0.66726 -0.441597,0.66792 -2.25e-4,6.9e-4 -0.03336,0.80492 -0.03306,0.80594 2.24e-4,9.5e-4 0.126332,0.35195 0.1269,0.35326 0.0014,0.003 0.13566,0.2148 0.176639,0.26484 0.08196,0.10009 0.121806,0.13514 0.159964,0.17097 0.07659,0.0724 0.137072,0.12184 0.204334,0.17665 0.13425,0.10967 0.293871,0.234 0.502304,0.39194 0.416896,0.31571 1.001724,0.74406 1.700166,1.25302 1.396833,1.01792 3.253855,2.35664 5.116979,3.69285 1.863153,1.33618 3.733544,2.67191 5.133565,3.68179 0.624286,0.45033 1.107086,0.80335 1.501426,1.09296 -0.148656,0.46598 -0.333829,1.04098 -0.574086,1.77189 -0.539018,1.63992 -1.25973,3.81855 -1.98166,5.99469 -0.721897,2.1761 -1.444395,4.35008 -1.976147,5.99465 -0.265947,0.82229 -0.483111,1.5088 -0.634794,2.00928 -0.07575,0.25012 -0.132546,0.45045 -0.176638,0.61823 -0.02262,0.0839 -0.04126,0.15574 -0.06076,0.25945 -0.0084,0.0517 -0.02544,0.10253 -0.03306,0.23175 -0.0028,0.0647 0.01695,0.3117 0.01695,0.31462 2.26e-4,0.001 0.104577,0.3689 0.104853,0.36983 3.96e-4,9.6e-4 0.496227,0.62887 0.496792,0.62929 5.93e-4,4.2e-4 0.755222,0.2815 0.756239,0.2815 10e-4,8e-5 0.373909,-0.017 0.37535,-0.017 0.0028,-4.7e-4 0.248707,-0.0594 0.309131,-0.0827 0.120687,-0.0469 0.163638,-0.0797 0.209705,-0.1048 0.09241,-0.0506 0.153458,-0.0857 0.226381,-0.13255 0.145833,-0.0938 0.320887,-0.2148 0.535454,-0.36433 0.429104,-0.2989 1.016816,-0.71846 1.7167,-1.22542 1.399767,-1.01394 3.242856,-2.36693 5.089393,-3.72597 1.846536,-1.35904 3.696322,-2.72311 5.089392,-3.74253 0.621371,-0.45467 1.109629,-0.80739 1.506937,-1.09295 0.397339,0.28556 0.885596,0.63828 1.506968,1.09295 1.393069,1.01942 3.237342,2.38349 5.08388,3.74253 1.846509,1.35904 3.695136,2.71203 5.094901,3.72597 0.699887,0.50696 1.287595,0.92652 1.716703,1.22542 0.21451,0.14958 0.383998,0.27046 0.529915,0.36433 0.07291,0.0469 0.133958,0.0819 0.226381,0.13255 0.04635,0.0255 0.09468,0.0579 0.215357,0.1048 0.0602,0.0225 0.300681,0.0822 0.303591,0.0827 0.0015,2.6e-4 0.379873,0.017 0.380887,0.017 0.001,-1e-4 0.750138,-0.28122 0.750702,-0.2815 5.94e-4,-4.2e-4 0.501937,-0.62833 0.502333,-0.62929 3.94e-4,-9.1e-4 0.09921,-0.36837 0.09948,-0.36983 4.53e-4,-0.003 0.01978,-0.25013 0.01695,-0.31462 -0.0084,-0.12914 -0.01695,-0.18003 -0.02826,-0.23175 -0.01978,-0.10351 -0.03872,-0.17551 -0.06076,-0.25945 -0.0441,-0.16788 -0.100894,-0.368 -0.176639,-0.61823 -0.151771,-0.50048 -0.374417,-1.18699 -0.640307,-2.00928 -0.531753,-1.64457 -1.248708,-3.81855 -1.970607,-5.99465 -0.72193,-2.17614 -1.448154,-4.35477 -1.987197,-5.99469 -0.240229,-0.73091 -0.42529,-1.30591 -0.574061,-1.77189 0.394341,-0.28962 0.882486,-0.64252 1.506939,-1.09296 1.40002,-1.00988 3.264899,-2.34561 5.128025,-3.68179 1.863154,-1.33621 3.725659,-2.67493 5.122517,-3.69285 0.698441,-0.50896 1.277759,-0.93731 1.694626,-1.25302 0.208575,-0.15802 0.373513,-0.28206 0.507843,-0.39194 0.06726,-0.0548 0.122098,-0.10432 0.198683,-0.17665 0.03843,-0.0362 0.07828,-0.0709 0.159963,-0.17097 0.04098,-0.05 0.175227,-0.26229 0.17664,-0.26484 6.78e-4,-0.001 0.13227,-0.35227 0.132546,-0.35326 2.25e-4,-0.001 -0.03279,-0.80525 -0.03306,-0.80594 -2.25e-4,-6.6e-4 -0.446343,-0.66724 -0.447108,-0.66792 -8.22e-4,-6.5e-4 -0.313314,-0.20913 -0.314642,-0.2097 -0.0028,-0.001 -0.235424,-0.0994 -0.298081,-0.11584 -0.125196,-0.0331 -0.179464,-0.0373 -0.231749,-0.0441 -0.104576,-0.0146 -0.172965,-0.0169 -0.259447,-0.0226 -0.173248,-0.008 -0.384394,-0.0169 -0.645818,-0.0225 -0.522879,-0.0114 -1.244439,-0.0146 -2.108639,-0.017 -1.728402,-0.003 -4.01659,0.0146 -6.309301,0.0282 -2.292711,0.0146 -4.588615,0.0282 -6.31484,0.0331 -0.771753,0.003 -1.376084,0.003 -1.865725,0 -0.153458,-0.46443 -0.338835,-1.03937 -0.57409,-1.77189 -0.527824,-1.64355 -1.220359,-3.82639 -1.915412,-6.01122 -0.695051,-2.18486 -1.390017,-4.3682 -1.926461,-6.01125 -0.268208,-0.82149 -0.496453,-1.50968 -0.667922,-2.00373 -0.08563,-0.247 -0.157984,-0.44001 -0.220727,-0.60166 -0.03138,-0.0808 -0.05964,-0.14748 -0.104852,-0.24279 -0.02262,-0.0475 -0.04041,-0.10091 -0.110498,-0.2097 -0.03504,-0.0542 -0.196705,-0.24616 -0.198683,-0.24842 -10e-4,-10e-4 -0.297204,-0.23118 -0.298078,-0.23175 -8.76e-4,-5.3e-4 -0.772069,-0.21537 -0.772801,-0.21537 z m 0,6.14372 c 0.454543,1.40836 0.92689,2.87644 1.451774,4.52637 0.694483,2.18312 1.384648,4.36951 1.915411,6.02226 0.265381,0.82638 0.491338,1.51768 0.656869,2.01478 0.0828,0.24843 0.1495,0.44812 0.204335,0.60168 0.02826,0.0769 0.04861,0.13855 0.07716,0.2097 0.01411,0.0357 0.02967,0.0683 0.06076,0.13255 0.01411,0.032 0.0342,0.0728 0.07716,0.14358 0.02262,0.0354 0.09864,0.14244 0.09948,0.14358 7.35e-4,9e-4 0.302998,0.29212 0.303592,0.29254 5.64e-4,4.2e-4 0.368707,0.19275 0.369838,0.19332 0.0011,4.2e-4 0.125488,0.0454 0.165616,0.0552 0.08027,0.0198 0.12492,0.0226 0.159963,0.0282 0.07038,0.008 0.105128,0.008 0.143578,0.0114 0.07659,0.005 0.144989,0.008 0.226379,0.0114 0.163073,0.005 0.372835,0.008 0.634797,0.0113 0.523924,0.003 1.25173,0.003 2.119662,0 1.735889,-0.005 4.029448,-0.0198 6.32035,-0.0331 1.729729,-0.0114 3.26818,-0.0198 4.747165,-0.0225 -1.198004,0.86677 -2.4477,1.76873 -3.85295,2.77653 -1.861656,1.33513 -3.725716,2.6718 -5.133538,3.68734 -0.703925,0.50776 -1.295084,0.93643 -1.7167,1.24749 -0.210836,0.15542 -0.37877,0.28121 -0.507844,0.38089 -0.06444,0.0498 -0.112201,0.0887 -0.171267,0.1379 -0.0294,0.0255 -0.05907,0.05 -0.110499,0.0991 -0.02544,0.0255 -0.05681,0.0531 -0.110498,0.11584 -0.02826,0.0313 -0.109654,0.13709 -0.110498,0.1379 -6.78e-4,9.7e-4 -0.182008,0.3802 -0.18229,0.38086 -2.27e-4,6.8e-4 -0.07179,0.40729 -0.07179,0.40848 -2.9e-5,0.001 0.0023,0.1353 0.0057,0.17664 0.0057,0.0822 0.01136,0.12524 0.01695,0.15996 0.01136,0.0701 0.02262,0.10627 0.03306,0.14358 0.01978,0.0746 0.03787,0.13709 0.06076,0.21535 0.04578,0.15656 0.108535,0.35747 0.187662,0.60718 0.15826,0.49949 0.380324,1.19023 0.651358,2.01479 0.542067,1.64909 1.271344,3.82579 1.992708,6.00019 0.544272,1.6406 1.025265,3.1048 1.484865,4.5098 -1.194981,-0.87183 -2.442921,-1.77856 -3.836362,-2.80415 -1.845063,-1.35797 -3.688522,-2.7174 -5.089393,-3.74252 -0.700448,-0.51254 -1.29059,-0.94264 -1.716699,-1.24749 -0.213097,-0.15234 -0.384224,-0.27246 -0.518894,-0.36433 -0.06726,-0.0461 -0.122649,-0.0808 -0.18766,-0.12152 -0.03249,-0.0198 -0.06444,-0.0438 -0.1269,-0.0772 -0.03138,-0.017 -0.06726,-0.0346 -0.143577,-0.0662 -0.03816,-0.017 -0.164485,-0.0605 -0.165616,-0.0608 -0.0012,-3.4e-4 -0.413277,-0.0552 -0.414012,-0.0552 -7.07e-4,0 -0.412826,0.0548 -0.413984,0.0552 -0.0011,3.1e-4 -0.127468,0.0449 -0.165617,0.0608 -0.07632,0.0316 -0.117848,0.0495 -0.148948,0.0662 -0.06274,0.0336 -0.09439,0.0568 -0.1269,0.0772 -0.06501,0.0407 -0.120394,0.0754 -0.18766,0.12152 -0.134525,0.0918 -0.305798,0.21196 -0.518866,0.36433 -0.426108,0.30485 -1.010738,0.73495 -1.711189,1.24749 -1.400869,1.02512 -3.249837,2.38455 -5.094904,3.74252 -1.393125,1.02536 -2.636067,1.93246 -3.83085,2.80415 0.4596,-1.405 0.940593,-2.8692 1.484866,-4.5098 0.721335,-2.1744 1.445129,-4.3511 1.987168,-6.00019 0.271034,-0.82456 0.49863,-1.5153 0.656898,-2.01479 0.07914,-0.24983 0.136229,-0.45072 0.182008,-0.60718 0.02262,-0.0782 0.04212,-0.14066 0.06076,-0.21535 0.0084,-0.0373 0.01978,-0.0735 0.03306,-0.14358 0.0057,-0.035 0.01695,-0.0777 0.02261,-0.15996 0.0028,-0.0412 5.5e-5,-0.17551 0,-0.17664 -2.9e-5,-0.001 -0.0715,-0.4078 -0.07179,-0.40848 -1.98e-4,-6.6e-4 -0.181441,-0.37987 -0.18229,-0.38086 -6.78e-4,-10e-4 -0.078,-0.10659 -0.104852,-0.1379 -0.0537,-0.0628 -0.08478,-0.0913 -0.110498,-0.11584 -0.05115,-0.0491 -0.08112,-0.0746 -0.110515,-0.0991 -0.05878,-0.0492 -0.112201,-0.0881 -0.176637,-0.1379 -0.129156,-0.0998 -0.297036,-0.22525 -0.507844,-0.38089 -0.42158,-0.31106 -1.007229,-0.73973 -1.711155,-1.24749 -1.40785,-1.01554 -3.277391,-2.35221 -5.139077,-3.68734 -1.406212,-1.0085 -2.654353,-1.90936 -3.852922,-2.77653 1.479269,0.003 3.022439,0.0113 4.752676,0.0225 2.290902,0.0146 4.584462,0.0282 6.320351,0.0331 0.867931,0.003 1.595737,0.003 2.119661,0 0.261992,-0.002 0.47181,-0.005 0.634797,-0.0113 0.08139,-0.002 0.144146,-0.005 0.220727,-0.0114 0.03816,-0.003 0.07857,-0.001 0.148948,-0.0114 0.03533,-0.005 0.07434,-0.008 0.154593,-0.0282 0.04014,-0.008 0.169855,-0.0548 0.171268,-0.0552 0.0011,-4.1e-4 0.369245,-0.19275 0.369839,-0.19332 5.93e-4,-4.2e-4 0.297347,-0.2916 0.298082,-0.29254 7.35e-4,-9.9e-4 0.08337,-0.10822 0.104852,-0.14358 0.04324,-0.0704 0.05625,-0.11162 0.07179,-0.14358 0.03108,-0.0639 0.04635,-0.097 0.06076,-0.13255 0.02883,-0.0712 0.04974,-0.13319 0.07716,-0.2097 0.05484,-0.15347 0.1269,-0.35314 0.209706,-0.60168 0.165616,-0.4971 0.385947,-1.1884 0.651329,-2.01478 0.530791,-1.65275 1.226465,-3.83914 1.92095,-6.02226 0.524884,-1.64993 0.997231,-3.11801 1.451743,-4.52637 z"
       id="path6780"
       inkscape:connector-curvature="0"
       inkscape:export-filename="C:\Users\Ryan\Pictures\TEMP EXPORT\path6780.png"
       inkscape:export-xdpi="96"
       inkscape:export-ydpi="96" />
  </g>
</svg>
