<?xml version="1.0" encoding="UTF-8" standalone="no"?>
<!-- Created with Inkscape (http://www.inkscape.org/) -->

<svg
   xmlns:dc="http://purl.org/dc/elements/1.1/"
   xmlns:cc="http://creativecommons.org/ns#"
   xmlns:rdf="http://www.w3.org/1999/02/22-rdf-syntax-ns#"
   xmlns:svg="http://www.w3.org/2000/svg"
   xmlns="http://www.w3.org/2000/svg"
   xmlns:xlink="http://www.w3.org/1999/xlink"
   xmlns:sodipodi="http://sodipodi.sourceforge.net/DTD/sodipodi-0.dtd"
   xmlns:inkscape="http://www.inkscape.org/namespaces/inkscape"
   width="214.63341mm"
   height="55.111214mm"
   viewBox="0 0 214.63341 55.111214"
   version="1.1"
   id="svg4603"
   inkscape:version="0.92.0 r15299"
   sodipodi:docname="logowithwords.svg">
  <defs
     id="defs4597" />
  <sodipodi:namedview
     id="base"
     pagecolor="#ffffff"
     bordercolor="#666666"
     borderopacity="1.0"
     inkscape:pageopacity="0.0"
     inkscape:pageshadow="2"
     inkscape:zoom="1.4"
     inkscape:cx="540.10709"
     inkscape:cy="80.961866"
     inkscape:document-units="mm"
     inkscape:current-layer="layer1"
     showgrid="false"
     fit-margin-top="0"
     fit-margin-left="0"
     fit-margin-right="0"
     fit-margin-bottom="0"
     inkscape:window-width="1366"
     inkscape:window-height="705"
     inkscape:window-x="-8"
     inkscape:window-y="-8"
     inkscape:window-maximized="1" />
  <metadata
     id="metadata4600">
    <rdf:RDF>
      <cc:Work
         rdf:about="">
        <dc:format>image/svg+xml</dc:format>
        <dc:type
           rdf:resource="http://purl.org/dc/dcmitype/StillImage" />
        <dc:title />
      </cc:Work>
    </rdf:RDF>
  </metadata>
  <g
     inkscape:label="Layer 1"
     inkscape:groupmode="layer"
     id="layer1"
     transform="translate(-50.677342,-137.90868)">
    <g
       aria-label="Overlooked
Videos"
       transform="matrix(0.26458333,0,0,0.26458333,15.075902,65.82769)"
       style="font-style:normal;font-variant:normal;font-weight:normal;font-stretch:normal;font-size:15px;line-height:25px;font-family:Arial;-inkscape-font-specification:Arial;letter-spacing:0px;word-spacing:0px;fill:#9d9d9d;fill-opacity:1;stroke:none;stroke-width:1px;stroke-linecap:butt;stroke-linejoin:miter;stroke-opacity:1"
       id="flowRoot5928">
      <path
         d="m 470.41016,302.44699 q 4.26562,4.6875 6.51562,11.48438 2.29688,6.79687 2.29688,15.42187 0,8.625 -2.34375,15.46875 -2.29688,6.79688 -6.46875,11.34375 -4.3125,4.73438 -10.21875,7.125 -5.85938,2.39063 -13.40625,2.39063 -7.35938,0 -13.40625,-2.4375 -6,-2.4375 -10.21875,-7.07813 -4.21875,-4.64062 -6.51563,-11.39062 -2.25,-6.75 -2.25,-15.42188 0,-8.53125 2.25,-15.28125 2.25,-6.79687 6.5625,-11.625 4.125,-4.59375 10.21875,-7.03125 6.14063,-2.4375 13.35938,-2.4375 7.5,0 13.45312,2.48438 6,2.4375 10.17188,6.98437 z m -0.84375,26.90625 q 0,-13.59375 -6.09375,-20.95312 -6.09375,-7.40625 -16.64063,-7.40625 -10.64062,0 -16.73437,7.40625 -6.04688,7.35937 -6.04688,20.95312 0,13.73438 6.1875,21.04688 6.1875,7.26562 16.59375,7.26562 10.40625,0 16.54688,-7.26562 6.1875,-7.3125 6.1875,-21.04688 z"
         style="font-style:normal;font-variant:normal;font-weight:normal;font-stretch:normal;font-size:96px;line-height:95px;font-family:sans-serif;-inkscape-font-specification:sans-serif;text-align:center;text-anchor:middle;fill:#9d9d9d;fill-opacity:1"
         id="path5823" />
      <path
         d="m 538.51953,311.86887 -21.1875,52.35937 h -8.85937 l -21.04688,-52.35937 h 9.5625 l 16.21875,41.67187 16.07813,-41.67187 z"
         style="font-style:normal;font-variant:normal;font-weight:normal;font-stretch:normal;font-size:96px;line-height:95px;font-family:sans-serif;-inkscape-font-specification:sans-serif;text-align:center;text-anchor:middle;fill:#9d9d9d;fill-opacity:1"
         id="path5825" />
      <path
         d="m 593.12891,338.96262 h -38.57813 q 0,4.82812 1.45313,8.4375 1.45312,3.5625 3.98437,5.85937 2.4375,2.25 5.76563,3.375 3.375,1.125 7.40625,1.125 5.34375,0 10.73437,-2.10937 5.4375,-2.15625 7.73438,-4.21875 h 0.46875 v 9.60937 q -4.45313,1.875 -9.09375,3.14063 -4.64063,1.26562 -9.75,1.26562 -13.03125,0 -20.34375,-7.03125 -7.3125,-7.07812 -7.3125,-20.0625 0,-12.84375 6.98437,-20.39062 7.03125,-7.54688 18.46875,-7.54688 10.59375,0 16.3125,6.1875 5.76563,6.1875 5.76563,17.57813 z m -8.57813,-6.75 q -0.0469,-6.9375 -3.51562,-10.73438 -3.42188,-3.79687 -10.45313,-3.79687 -7.07812,0 -11.29687,4.17187 -4.17188,4.17188 -4.73438,10.35938 z"
         style="font-style:normal;font-variant:normal;font-weight:normal;font-stretch:normal;font-size:96px;line-height:95px;font-family:sans-serif;-inkscape-font-specification:sans-serif;text-align:center;text-anchor:middle;fill:#9d9d9d;fill-opacity:1"
         id="path5827" />
      <path
         d="m 639.16016,321.47824 h -0.46875 q -1.96875,-0.46875 -3.84375,-0.65625 -1.82813,-0.23437 -4.35938,-0.23437 -4.07812,0 -7.875,1.82812 -3.79687,1.78125 -7.3125,4.64063 v 37.17187 h -8.8125 v -52.35937 h 8.8125 v 7.73437 q 5.25,-4.21875 9.23438,-5.95312 4.03125,-1.78125 8.20312,-1.78125 2.29688,0 3.32813,0.14062 1.03125,0.0937 3.09375,0.42188 z"
         style="font-style:normal;font-variant:normal;font-weight:normal;font-stretch:normal;font-size:96px;line-height:95px;font-family:sans-serif;-inkscape-font-specification:sans-serif;text-align:center;text-anchor:middle;fill:#9d9d9d;fill-opacity:1"
         id="path5829" />
      <path
         d="m 656.45703,364.22824 h -8.8125 v -72.9375 h 8.8125 z"
         style="font-style:normal;font-variant:normal;font-weight:normal;font-stretch:normal;font-size:96px;line-height:95px;font-family:sans-serif;-inkscape-font-specification:sans-serif;text-align:center;text-anchor:middle;fill:#9d9d9d;fill-opacity:1"
         id="path5831" />
      <path
         d="m 718.23828,338.07199 q 0,12.79688 -6.5625,20.20313 -6.5625,7.40625 -17.57812,7.40625 -11.10938,0 -17.67188,-7.40625 -6.51562,-7.40625 -6.51562,-20.20313 0,-12.79687 6.51562,-20.20312 6.5625,-7.45313 17.67188,-7.45313 11.01562,0 17.57812,7.45313 6.5625,7.40625 6.5625,20.20312 z m -9.09375,0 q 0,-10.17187 -3.98437,-15.09375 -3.98438,-4.96875 -11.0625,-4.96875 -7.17188,0 -11.15625,4.96875 -3.9375,4.92188 -3.9375,15.09375 0,9.84375 3.98437,14.95313 3.98438,5.0625 11.10938,5.0625 7.03125,0 11.01562,-5.01563 4.03125,-5.0625 4.03125,-15 z"
         style="font-style:normal;font-variant:normal;font-weight:normal;font-stretch:normal;font-size:96px;line-height:95px;font-family:sans-serif;-inkscape-font-specification:sans-serif;text-align:center;text-anchor:middle;fill:#9d9d9d;fill-opacity:1"
         id="path5833" />
      <path
         d="m 776.55078,338.07199 q 0,12.79688 -6.5625,20.20313 -6.5625,7.40625 -17.57812,7.40625 -11.10938,0 -17.67188,-7.40625 -6.51562,-7.40625 -6.51562,-20.20313 0,-12.79687 6.51562,-20.20312 6.5625,-7.45313 17.67188,-7.45313 11.01562,0 17.57812,7.45313 6.5625,7.40625 6.5625,20.20312 z m -9.09375,0 q 0,-10.17187 -3.98437,-15.09375 -3.98438,-4.96875 -11.0625,-4.96875 -7.17188,0 -11.15625,4.96875 -3.9375,4.92188 -3.9375,15.09375 0,9.84375 3.98437,14.95313 3.98438,5.0625 11.10938,5.0625 7.03125,0 11.01562,-5.01563 4.03125,-5.0625 4.03125,-15 z"
         style="font-style:normal;font-variant:normal;font-weight:normal;font-stretch:normal;font-size:96px;line-height:95px;font-family:sans-serif;-inkscape-font-specification:sans-serif;text-align:center;text-anchor:middle;fill:#9d9d9d;fill-opacity:1"
         id="path5835" />
      <path
         d="m 837.76953,364.22824 h -11.625 l -21,-22.92187 -5.71875,5.4375 v 17.48437 h -8.8125 v -72.9375 h 8.8125 v 46.78125 l 25.45313,-26.20312 h 11.10937 l -24.32812,24.1875 z"
         style="font-style:normal;font-variant:normal;font-weight:normal;font-stretch:normal;font-size:96px;line-height:95px;font-family:sans-serif;-inkscape-font-specification:sans-serif;text-align:center;text-anchor:middle;fill:#9d9d9d;fill-opacity:1"
         id="path5837" />
      <path
         d="m 889.94141,338.96262 h -38.57813 q 0,4.82812 1.45313,8.4375 1.45312,3.5625 3.98437,5.85937 2.4375,2.25 5.76563,3.375 3.375,1.125 7.40625,1.125 5.34375,0 10.73437,-2.10937 5.4375,-2.15625 7.73438,-4.21875 h 0.46875 v 9.60937 q -4.45313,1.875 -9.09375,3.14063 -4.64063,1.26562 -9.75,1.26562 -13.03125,0 -20.34375,-7.03125 -7.3125,-7.07812 -7.3125,-20.0625 0,-12.84375 6.98437,-20.39062 7.03125,-7.54688 18.46875,-7.54688 10.59375,0 16.3125,6.1875 5.76563,6.1875 5.76563,17.57813 z m -8.57813,-6.75 q -0.0469,-6.9375 -3.51562,-10.73438 -3.42188,-3.79687 -10.45313,-3.79687 -7.07812,0 -11.29687,4.17187 -4.17188,4.17188 -4.73438,10.35938 z"
         style="font-style:normal;font-variant:normal;font-weight:normal;font-stretch:normal;font-size:96px;line-height:95px;font-family:sans-serif;-inkscape-font-specification:sans-serif;text-align:center;text-anchor:middle;fill:#9d9d9d;fill-opacity:1"
         id="path5839" />
      <path
         d="m 945.76953,364.22824 h -8.8125 v -5.48437 q -3.79687,3.28125 -7.92187,5.10937 -4.125,1.82813 -8.95313,1.82813 -9.375,0 -14.90625,-7.21875 -5.48437,-7.21875 -5.48437,-20.01563 0,-6.65625 1.875,-11.85937 1.92187,-5.20313 5.15625,-8.85938 3.1875,-3.5625 7.40625,-5.4375 4.26562,-1.875 8.8125,-1.875 4.125,0 7.3125,0.89063 3.1875,0.84375 6.70312,2.67187 v -22.6875 h 8.8125 z m -8.8125,-12.89062 v -30.04688 q -3.5625,-1.59375 -6.375,-2.20312 -2.8125,-0.60938 -6.14062,-0.60938 -7.40625,0 -11.53125,5.15625 -4.125,5.15625 -4.125,14.625 0,9.32813 3.1875,14.20313 3.1875,4.82812 10.21875,4.82812 3.75,0 7.59375,-1.64062 3.84375,-1.6875 7.17187,-4.3125 z"
         style="font-style:normal;font-variant:normal;font-weight:normal;font-stretch:normal;font-size:96px;line-height:95px;font-family:sans-serif;-inkscape-font-specification:sans-serif;text-align:center;text-anchor:middle;fill:#9d9d9d;fill-opacity:1"
         id="path5841" />
      <path
         d="m 587.59766,389.43137 -25.40625,69.79687 h -12.375 l -25.40625,-69.79687 h 9.9375 l 21.89062,61.40625 21.89063,-61.40625 z"
         style="font-style:normal;font-variant:normal;font-weight:normal;font-stretch:normal;font-size:96px;line-height:95px;font-family:sans-serif;-inkscape-font-specification:sans-serif;text-align:center;text-anchor:middle;fill:#9d9d9d;fill-opacity:1"
         id="path5843" />
      <path
         d="m 606.95703,398.10324 h -9.9375 v -9.14062 h 9.9375 z m -0.5625,61.125 h -8.8125 v -52.35937 h 8.8125 z"
         style="font-style:normal;font-variant:normal;font-weight:normal;font-stretch:normal;font-size:96px;line-height:95px;font-family:sans-serif;-inkscape-font-specification:sans-serif;text-align:center;text-anchor:middle;fill:#9d9d9d;fill-opacity:1"
         id="path5845" />
      <path
         d="m 666.01953,459.22824 h -8.8125 v -5.48437 q -3.79687,3.28125 -7.92187,5.10937 -4.125,1.82813 -8.95313,1.82813 -9.375,0 -14.90625,-7.21875 -5.48437,-7.21875 -5.48437,-20.01563 0,-6.65625 1.875,-11.85937 1.92187,-5.20313 5.15625,-8.85938 3.1875,-3.5625 7.40625,-5.4375 4.26562,-1.875 8.8125,-1.875 4.125,0 7.3125,0.89063 3.1875,0.84375 6.70312,2.67187 v -22.6875 h 8.8125 z m -8.8125,-12.89062 v -30.04688 q -3.5625,-1.59375 -6.375,-2.20312 -2.8125,-0.60938 -6.14062,-0.60938 -7.40625,0 -11.53125,5.15625 -4.125,5.15625 -4.125,14.625 0,9.32813 3.1875,14.20313 3.1875,4.82812 10.21875,4.82812 3.75,0 7.59375,-1.64062 3.84375,-1.6875 7.17187,-4.3125 z"
         style="font-style:normal;font-variant:normal;font-weight:normal;font-stretch:normal;font-size:96px;line-height:95px;font-family:sans-serif;-inkscape-font-specification:sans-serif;text-align:center;text-anchor:middle;fill:#9d9d9d;fill-opacity:1"
         id="path5847" />
      <path
         d="m 727.19141,433.96262 h -38.57813 q 0,4.82812 1.45313,8.4375 1.45312,3.5625 3.98437,5.85937 2.4375,2.25 5.76563,3.375 3.375,1.125 7.40625,1.125 5.34375,0 10.73437,-2.10937 5.4375,-2.15625 7.73438,-4.21875 h 0.46875 v 9.60937 q -4.45313,1.875 -9.09375,3.14063 -4.64063,1.26562 -9.75,1.26562 -13.03125,0 -20.34375,-7.03125 -7.3125,-7.07812 -7.3125,-20.0625 0,-12.84375 6.98437,-20.39062 7.03125,-7.54688 18.46875,-7.54688 10.59375,0 16.3125,6.1875 5.76563,6.1875 5.76563,17.57813 z m -8.57813,-6.75 q -0.0469,-6.9375 -3.51562,-10.73438 -3.42188,-3.79687 -10.45313,-3.79687 -7.07812,0 -11.29687,4.17187 -4.17188,4.17188 -4.73438,10.35938 z"
         style="font-style:normal;font-variant:normal;font-weight:normal;font-stretch:normal;font-size:96px;line-height:95px;font-family:sans-serif;-inkscape-font-specification:sans-serif;text-align:center;text-anchor:middle;fill:#9d9d9d;fill-opacity:1"
         id="path5849" />
      <path
         d="m 785.17578,433.07199 q 0,12.79688 -6.5625,20.20313 -6.5625,7.40625 -17.57812,7.40625 -11.10938,0 -17.67188,-7.40625 -6.51562,-7.40625 -6.51562,-20.20313 0,-12.79687 6.51562,-20.20312 6.5625,-7.45313 17.67188,-7.45313 11.01562,0 17.57812,7.45313 6.5625,7.40625 6.5625,20.20312 z m -9.09375,0 q 0,-10.17187 -3.98437,-15.09375 -3.98438,-4.96875 -11.0625,-4.96875 -7.17188,0 -11.15625,4.96875 -3.9375,4.92188 -3.9375,15.09375 0,9.84375 3.98437,14.95313 3.98438,5.0625 11.10938,5.0625 7.03125,0 11.01562,-5.01563 4.03125,-5.0625 4.03125,-15 z"
         style="font-style:normal;font-variant:normal;font-weight:normal;font-stretch:normal;font-size:96px;line-height:95px;font-family:sans-serif;-inkscape-font-specification:sans-serif;text-align:center;text-anchor:middle;fill:#9d9d9d;fill-opacity:1"
         id="path5851" />
      <path
         d="m 836.26953,444.13449 q 0,7.17188 -5.95312,11.76563 -5.90625,4.59375 -16.17188,4.59375 -5.8125,0 -10.6875,-1.35938 -4.82812,-1.40625 -8.10937,-3.04687 v -9.89063 h 0.46875 q 4.17187,3.14063 9.28125,5.01563 5.10937,1.82812 9.79687,1.82812 5.8125,0 9.09375,-1.875 3.28125,-1.875 3.28125,-5.90625 0,-3.09375 -1.78125,-4.6875 -1.78125,-1.59375 -6.84375,-2.71875 -1.875,-0.42187 -4.92187,-0.98437 -3,-0.5625 -5.48438,-1.21875 -6.89062,-1.82813 -9.79687,-5.34375 -2.85938,-3.5625 -2.85938,-8.71875 0,-3.23438 1.3125,-6.09375 1.35938,-2.85938 4.07813,-5.10938 2.625,-2.20312 6.65625,-3.46875 4.07812,-1.3125 9.09375,-1.3125 4.6875,0 9.46875,1.17188 4.82812,1.125 8.01562,2.76562 v 9.42188 h -0.46875 q -3.375,-2.48438 -8.20312,-4.17188 -4.82813,-1.73437 -9.46875,-1.73437 -4.82813,0 -8.15625,1.875 -3.32813,1.82812 -3.32813,5.48437 0,3.23438 2.01563,4.875 1.96875,1.64063 6.375,2.67188 2.4375,0.5625 5.4375,1.125 3.04687,0.5625 5.0625,1.03125 6.14062,1.40625 9.46875,4.82812 3.32812,3.46875 3.32812,9.1875 z"
         style="font-style:normal;font-variant:normal;font-weight:normal;font-stretch:normal;font-size:96px;line-height:95px;font-family:sans-serif;-inkscape-font-specification:sans-serif;text-align:center;text-anchor:middle;fill:#9d9d9d;fill-opacity:1"
         id="path5853" />
    </g>
    <g
       id="g98"
       transform="matrix(1.436301,0,0,1.436301,-27.058539,22.760493)">
      <path
         inkscape:export-ydpi="96"
         inkscape:export-xdpi="96"
         id="path1289"
         transform="scale(0.26458333)"
         d="m 299.50977,303.28516 c -52.44184,0 -94.95314,42.51324 -94.95313,94.95507 h 28.78906 c 0,-36.54192 29.62215,-66.16406 66.16407,-66.16406 36.54192,0 66.16601,29.62214 66.16601,66.16406 h 28.78906 c 0,-52.44183 -42.51324,-94.95507 -94.95507,-94.95507 z"
         style="opacity:1;fill:#000000;fill-opacity:1;fill-rule:nonzero;stroke:none;stroke-width:0.99999994;stroke-miterlimit:4;stroke-dasharray:none;stroke-opacity:1"
         inkscape:connector-curvature="0" />
      <g
         inkscape:export-ydpi="96"
         inkscape:export-xdpi="96"
         id="g5906">
        <path
           style="fill:none;fill-rule:evenodd;stroke:#ffffff;stroke-width:1.58749998;stroke-linecap:butt;stroke-linejoin:miter;stroke-opacity:1"
           d="M 70.644048,81.824581 77.0173,84.1698 72.475639,89.21873"
           id="path1297"
           inkscape:connector-curvature="0"
           sodipodi:nodetypes="ccc"
           inkscape:transform-center-x="5.414874"
           inkscape:transform-center-y="-19.846065"
           inkscape:tile-cx="79.245546"
           inkscape:tile-cy="105.36772"
           inkscape:tile-w="7.8454423"
           inkscape:tile-h="8.8468936"
           inkscape:tile-x0="72.801618"
           inkscape:tile-y0="80.342266" />
        <use
           x="0"
           y="0"
           inkscape:tiled-clone-of="#path1297"
           xlink:href="#path1297"
           transform="rotate(30,79.245546,105.36772)"
           id="use5854"
           inkscape:transform-center-x="-73.400909"
           inkscape:transform-center-y="50.377645"
           width="100%"
           height="100%" />
        <use
           x="0"
           y="0"
           inkscape:tiled-clone-of="#path1297"
           xlink:href="#path1297"
           transform="rotate(60,79.245546,105.36772)"
           id="use5856"
           inkscape:transform-center-x="-81.309745"
           inkscape:transform-center-y="56.912251"
           width="100%"
           height="100%" />
        <use
           x="0"
           y="0"
           inkscape:tiled-clone-of="#path1297"
           xlink:href="#path1297"
           transform="rotate(-30,79.245546,105.36772)"
           id="use5874"
           inkscape:transform-center-x="-51.998393"
           inkscape:transform-center-y="55.722242"
           width="100%"
           height="100%" />
      </g>
      <circle
         inkscape:export-ydpi="96"
         inkscape:export-xdpi="96"
         r="12.378723"
         cy="105.36772"
         cx="79.245552"
         id="path5946"
         style="opacity:1;fill:#e6e6e6;fill-opacity:1;fill-rule:nonzero;stroke:#000000;stroke-width:1.58749998;stroke-miterlimit:4;stroke-dasharray:none;stroke-opacity:1" />
      <path
         inkscape:export-ydpi="96"
         inkscape:export-xdpi="96"
         sodipodi:nodetypes="cccc"
         inkscape:connector-curvature="0"
         id="path5948"
         d="m 75.654778,98.186172 10.522417,7.181548 -10.522417,7.18155 z"
         style="fill:#000000;fill-rule:evenodd;stroke:none;stroke-width:0.26458332px;stroke-linecap:butt;stroke-linejoin:miter;stroke-opacity:1" />
    </g>
  </g>
</svg>
